Coordinates
version=1
nRows=4
nColumns=63
inDegrees=yes

Units are S.I. units (second, meters, Newtons, ...)
If the header above contains a line with 'inDegrees', this indicates whether rotational values are in degrees (yes) or radians (no).

endheader
time	pelvis_tilt	pelvis_list	pelvis_rotation	pelvis_tx	pelvis_ty	pelvis_tz	hip_flexion_r	hip_adduction_r	hip_rotation_r	knee_angle_r	knee_angle_r_beta	ankle_angle_r	subtalar_angle_r	mtp_angle_r	hip_flexion_l	hip_adduction_l	hip_rotation_l	knee_angle_l	knee_angle_l_beta	ankle_angle_l	subtalar_angle_l	mtp_angle_l	L5_S1_Flex_Ext	L5_S1_Lat_Bending	L5_S1_axial_rotation	L4_L5_Flex_Ext	L4_L5_Lat_Bending	L4_L5_axial_rotation	L3_L4_Flex_Ext	L3_L4_Lat_Bending	L3_L4_axial_rotation	L2_L3_Flex_Ext	L2_L3_Lat_Bending	L2_L3_axial_rotation	L1_L2_Flex_Ext	L1_L2_Lat_Bending	L1_L2_axial_rotation	L1_T12_Flex_Ext	L1_T12_Lat_Bending	L1_T12_axial_rotation	Abs_r3	Abs_r2	Abs_r1	Abs_t1	Abs_t2	neck_flexion	neck_bending	neck_rotation	arm_flex_r	arm_add_r	arm_rot_r	elbow_flex_r	pro_sup_r	wrist_flex_r	wrist_dev_r	arm_flex_l	arm_add_l	arm_rot_l	elbow_flex_l	pro_sup_l	wrist_flex_l	wrist_dev_l
      2.88333333	      3.18769868	     -5.26581909	     82.48983735	      0.14786357	      1.12696158	      0.05620565	      5.91710650	      3.11559410	     11.68750746	      9.09537232	      0.15874419	     26.91862279	     -7.84694566	      0.00000000	      7.20657817	     -1.81547548	     -0.67671548	     13.36990879	      0.23334893	     30.84406230	     -7.31061513	      0.00000000	      0.13043952	      0.46283189	      2.78363391	      0.24223923	      0.61556641	      2.95761103	      0.21429908	      1.12532945	      2.95761103	      0.14907932	      1.12532945	      2.43567967	      0.12112614	      0.94380678	      2.26170255	      0.07453314	      0.71692659	      2.08772543	      0.93171643	      5.23564686	     15.48173671	      0.00000000	      0.00000000	     25.37222647	     -6.18563399	     -2.41229495	    -21.82067052	    -23.10507679	     -6.82685723	     37.32294046	     76.65007935	     20.22101387	    -23.26177512	     23.24570977	      9.91022589	    190.63944867	      0.14168307	      2.78887368	    -69.46510846	    -24.20786604
      2.90000000	      3.28613293	     -5.31248699	     82.91337185	      0.14887477	      1.12677737	      0.05591984	      5.74601885	      3.22712101	     11.73903315	      8.73287293	      0.15241739	     26.89365393	     -8.12152041	      0.00000000	      7.74295834	     -1.96346868	     -0.34113486	     14.33571013	      0.25020534	     30.63959808	     -7.83877599	      0.00000000	      0.12618960	      0.43874725	      2.67604557	      0.23434671	      0.58353385	      2.84329842	      0.20731690	      1.06677007	      2.84329842	      0.14422210	      1.06677007	      2.34153987	      0.11717967	      0.89469340	      2.17428702	      0.07210474	      0.67961949	      2.00703418	      0.90135971	      4.96319667	     14.88336263	      0.00000000	      0.00000000	     24.93252504	     -5.84657951	     -1.62053150	    -21.05745570	    -23.45326033	     -5.37671874	     36.94410692	     75.40186972	     21.42720346	    -23.07125872	     22.49492209	      9.25266864	    186.10209315	      0.15240844	      2.34072927	    -69.32309474	    -24.14864750
      2.91666667	      3.31995727	     -5.34802482	     83.37274431	      0.14985038	      1.12642877	      0.05495186	      5.53452041	      3.26376975	     11.87740679	      8.38476958	      0.14634184	     26.90652121	     -8.42656074	      0.00000000	      8.16904366	     -2.04805348	     -0.09404838	     15.13227333	      0.26410799	     30.40501511	     -8.21585175	      0.00000000	      0.12610337	      0.40339631	      2.52524645	      0.23418657	      0.53651710	      2.68307436	      0.20717523	      0.98081779	      2.68307436	      0.14412355	      0.98081779	      2.20959065	      0.11709959	      0.82260576	      2.05176274	      0.07205547	      0.62486089	      1.89393484	      0.90074378	      4.56329977	     14.04466320	      0.00000000	      0.00000000	     24.45120809	     -5.65781696	     -1.11273352	    -20.07736112	    -23.66749163	     -3.60923132	     36.06737568	     75.15423289	     21.93745648	    -22.82036757	     21.54655586	      8.45430015	    181.06952104	      0.16535447	      1.89417390	    -69.06319535	    -24.08719143
      2.93333333	      3.33074760	     -5.37842892	     84.04894795	      0.15055252	      1.12606070	      0.05345454	      5.22448923	      3.24693874	     11.96609713	      7.91198630	      0.13809021	     26.78422211	     -8.84806258	      0.00000000	      8.52917003	     -2.07095149	      0.38138524	     15.75391184	      0.27495763	     30.17951237	     -8.55526676	      0.00000000	      0.13277115	      0.36331114	      2.30381085	      0.24656930	      0.48320381	      2.44779902	      0.21812972	      0.88335470	      2.44779902	      0.15174414	      0.88335470	      2.01583449	      0.12329129	      0.74086407	      1.87184631	      0.07586543	      0.56276895	      1.72785813	      0.94837102	      4.10984823	     12.81310478	      0.00000000	      0.00000000	     24.00426926	     -5.28753411	     -0.40499498	    -18.82616023	    -23.86882844	     -1.12852095	     34.71133061	     75.27984295	     22.03174730	    -22.55651590	     20.57646627	      7.42975829	    177.00016852	      0.17825021	      1.69077529	    -68.68196803	    -24.00882183
